<?xml version="1.0" encoding="UTF-8" standalone="no"?>
<!-- Created with Inkscape (http://www.inkscape.org/) -->

<svg
   xmlns:dc="http://purl.org/dc/elements/1.1/"
   xmlns:cc="http://creativecommons.org/ns#"
   xmlns:rdf="http://www.w3.org/1999/02/22-rdf-syntax-ns#"
   xmlns:svg="http://www.w3.org/2000/svg"
   xmlns="http://www.w3.org/2000/svg"
   xmlns:sodipodi="http://sodipodi.sourceforge.net/DTD/sodipodi-0.dtd"
   xmlns:inkscape="http://www.inkscape.org/namespaces/inkscape"
   version="1.1"
   id="svg2"
   xml:space="preserve"
   width="1587.4"
   height="1122.52"
   viewBox="0 0 1587.4 1122.52"
   sodipodi:docname="FINAL2.ai"
   inkscape:export-filename="C:\Users\Guy_Teichman\Desktop\logo.png"
   inkscape:export-xdpi="450"
   inkscape:export-ydpi="450"
   inkscape:version="0.92.4 (5da689c313, 2019-01-14)"><metadata
     id="metadata8"><rdf:RDF><cc:Work
         rdf:about=""><dc:format>image/svg+xml</dc:format><dc:type
           rdf:resource="http://purl.org/dc/dcmitype/StillImage" /><dc:title></dc:title></cc:Work></rdf:RDF></metadata><defs
     id="defs6"><clipPath
       clipPathUnits="userSpaceOnUse"
       id="clipPath18"><path
         d="M 0,841.89 H 1190.55 V 0 H 0 Z"
         id="path16"
         inkscape:connector-curvature="0" /></clipPath></defs><sodipodi:namedview
     pagecolor="#ffffff"
     bordercolor="#666666"
     borderopacity="1"
     objecttolerance="10"
     gridtolerance="10"
     guidetolerance="10"
     inkscape:pageopacity="0"
     inkscape:pageshadow="2"
     inkscape:window-width="1920"
     inkscape:window-height="991"
     id="namedview4"
     showgrid="false"
     inkscape:zoom="0.67178646"
     inkscape:cx="793.70001"
     inkscape:cy="561.26001"
     inkscape:window-x="-9"
     inkscape:window-y="-9"
     inkscape:window-maximized="1"
     inkscape:current-layer="g10" /><g
     id="g10"
     inkscape:groupmode="layer"
     inkscape:label="FINAL2"
     transform="matrix(1.3333333,0,0,-1.3333333,0,1122.52)"><g
       id="g12"><g
         id="g14"
         clip-path="url(#clipPath18)"><g
           id="g20"
           transform="translate(401.3794,208.708)"><path
             d="m 0,0 c 6.067,0 10.957,1.121 14.673,3.369 3.715,2.24 5.573,5.199 5.573,8.863 0,3.717 -1.597,6.375 -4.792,7.971 -3.195,1.592 -8.507,2.387 -15.938,2.387 -4.416,0 -8.24,-0.078 -11.469,-0.235 0.142,-1.89 0.215,-4.439 0.215,-7.652 0,-2.764 -0.019,-4.898 -0.053,-6.416 L -11.846,0.08 C -11.091,0.027 -9.765,0 -7.861,0 Z m -2.531,25.502 c 2.083,0 3.771,0.012 5.063,0.037 7.466,0 13.074,-1.049 16.826,-3.144 3.75,-2.1 5.627,-5.221 5.627,-9.366 0,-3.293 -1.186,-6.136 -3.553,-8.529 -2.37,-2.385 -5.655,-4.248 -9.855,-5.576 v -0.238 c 4.2,-0.852 7.834,-3.27 10.904,-7.252 3.069,-3.985 6.597,-10.002 10.58,-18.049 h -4.847 c -2.476,4.861 -5.015,9.236 -7.617,13.129 -2.604,3.888 -4.829,6.412 -6.677,7.568 -1.849,1.156 -3.564,1.938 -5.143,2.352 -1.579,0.412 -4.953,0.617 -10.122,0.617 -5.061,0 -8.526,-0.028 -10.393,-0.08 0,-10.996 0.232,-18.858 0.7,-23.586 h -5.87 c 0.36,5.416 0.637,10.172 0.835,14.261 0.198,4.094 0.297,8.452 0.297,13.073 0,8.791 -0.307,16.988 -0.917,24.582 h 6.3 z"
             style="fill:#231f20;fill-opacity:1;fill-rule:nonzero;stroke:none"
             id="path22"
             inkscape:connector-curvature="0" /></g><g
           id="g24"
           transform="translate(466.9873,228.6729)"><path
             d="m 0,0 c 14.501,-15.33 24.068,-25.715 28.699,-31.162 4.632,-5.443 7.052,-8.406 7.27,-8.883 h 0.214 c -0.359,5.92 -0.537,11.768 -0.537,17.529 v 10.801 c 0,7.225 -0.109,12.906 -0.324,17.051 h 4.738 c -0.431,-6.082 -0.646,-14.793 -0.646,-26.137 0,-5.129 0.037,-9.662 0.108,-13.607 0.071,-3.947 0.251,-8.002 0.538,-12.172 h -3.069 c -0.072,0 -2.512,2.775 -7.324,8.328 -4.81,5.549 -9.099,10.359 -12.868,14.422 L 4.468,-10.523 0.429,-6.141 c -1.794,1.914 -3.158,3.387 -4.092,4.426 -0.933,1.033 -1.58,1.805 -1.939,2.311 h -0.214 c 0.287,-6.293 0.431,-12.034 0.431,-17.215 0,-2.418 -0.038,-5.856 -0.108,-10.317 l -0.053,-9.005 c 0,-4.334 0.087,-7.879 0.268,-10.639 h -4.739 c 0.61,10.25 0.916,19.363 0.916,27.334 0,8.047 -0.306,16.242 -0.916,24.582 h 5.062 c 0,-0.08 0.663,-0.811 1.991,-2.19 z"
             style="fill:#231f20;fill-opacity:1;fill-rule:nonzero;stroke:none"
             id="path26"
             inkscape:connector-curvature="0" /></g><g
           id="g28"
           transform="translate(557.252,230.7432)"><path
             d="m 0,0 h -0.484 c 0,-0.77 -5.329,-9.803 -15.992,-27.094 h 32.2 c -5.312,9.19 -9.261,15.889 -11.846,20.1 C 1.293,-2.781 0,-0.451 0,0 m -17.769,-29.725 c -3.302,-5.687 -5.707,-10.043 -7.214,-13.068 -1.507,-3.029 -2.261,-4.982 -2.261,-5.857 h -5.761 c 0,0.847 4.996,9.283 14.995,25.3 9.997,16.018 14.996,24.891 14.996,26.616 H 3.07 c 0,-1.567 4.929,-10.26 14.781,-26.077 9.854,-15.82 14.781,-24.433 14.781,-25.839 h -5.546 c 0,1.724 -3.231,8.035 -9.693,18.925 z"
             style="fill:#231f20;fill-opacity:1;fill-rule:nonzero;stroke:none"
             id="path30"
             inkscape:connector-curvature="0" /></g><g
           id="g32"
           transform="translate(602.2354,238.2334)"><path
             d="m 0,0 6.409,0.158 c -0.43,-7.013 -0.646,-15.844 -0.646,-26.494 0,-10.574 0.288,-20.508 0.862,-29.805 H 0.323 c 0.683,8.26 1.026,18.198 1.026,29.805 C 1.349,-16.562 0.897,-7.783 0,0"
             style="fill:#231f20;fill-opacity:1;fill-rule:nonzero;stroke:none"
             id="path34"
             inkscape:connector-curvature="0" /></g><g
           id="g36"
           transform="translate(629.1816,164.4814)"><path
             d="m 0,0 0.217,3.266 c 5.131,0 9.064,1.375 11.791,4.123 2.726,2.748 4.092,5.945 4.092,9.584 0,1.699 -1.32,5.146 -3.957,10.338 -2.639,5.193 -6.937,12.746 -12.895,22.652 l -3.34,5.5 h 5.977 c 0,-0.877 2.79,-6.256 8.372,-16.135 5.582,-9.885 8.481,-15.955 8.698,-18.213 h 0.215 c 0,1.912 2.351,7.584 7.053,17.014 4.704,9.432 7.055,15.209 7.055,17.334 h 5.546 c 0,-0.957 -0.898,-2.949 -2.693,-5.977 C 34.337,46.459 31.573,41.133 27.838,33.508 24.105,25.883 21.432,19.541 19.815,14.482 18.199,9.424 15.813,5.744 12.653,3.443 9.495,1.148 5.277,0 0,0"
             style="fill:#231f20;fill-opacity:1;fill-rule:nonzero;stroke:none"
             id="path38"
             inkscape:connector-curvature="0" /></g><g
           id="g40"
           transform="translate(681.7041,183.4072)"><path
             d="M 0,0 1.185,3.744 C 3.589,2.92 6.22,2.322 9.072,1.951 c 2.855,-0.373 6.114,-0.556 9.774,-0.556 3.447,0 6.166,0.609 8.156,1.834 1.994,1.218 2.99,2.8 2.99,4.74 0,1.592 -0.519,3.002 -1.561,4.22 -1.041,1.225 -3.429,2.385 -7.162,3.487 -3.734,1.103 -7.199,2.201 -10.393,3.289 -3.194,1.09 -5.556,2.398 -7.079,3.928 -1.527,1.525 -2.289,3.271 -2.289,5.236 0,2.869 1.544,5.141 4.631,6.814 3.086,1.674 6.982,2.51 11.683,2.51 5.135,0 9.962,-0.49 14.486,-1.474 l -1.24,-3.346 c -3.552,1.088 -8.147,1.633 -13.783,1.633 -3.52,0 -6.31,-0.584 -8.373,-1.754 C 6.848,31.346 5.815,29.908 5.815,28.209 5.815,26.271 6.91,24.758 9.1,23.666 11.288,22.58 14.97,21.258 20.139,19.701 25.308,18.146 28.96,16.588 31.096,15.023 33.23,13.453 34.3,11.275 34.3,8.484 34.3,5.166 32.792,2.598 29.778,0.777 26.762,-1.045 22.598,-1.953 17.285,-1.953 11.288,-1.953 5.528,-1.303 0,0"
             style="fill:#231f20;fill-opacity:1;fill-rule:nonzero;stroke:none"
             id="path42"
             inkscape:connector-curvature="0" /></g><g
           id="g44"
           transform="translate(740.418,233.9521)"><path
             d="m 0,0 c 0.608,-0.627 0.915,-1.35 0.915,-2.174 0,-0.955 -0.323,-1.779 -0.969,-2.471 -0.646,-0.689 -1.634,-1.035 -2.962,-1.035 -1.113,0 -2.001,0.305 -2.667,0.916 -0.663,0.614 -0.996,1.342 -0.996,2.19 0,0.906 0.386,1.715 1.159,2.433 0.772,0.719 1.823,1.075 3.151,1.075 C -1.399,0.934 -0.61,0.623 0,0 m -7.001,-14.326 6.086,1.076 c -0.396,-6.189 -0.594,-13.191 -0.594,-20.998 0,-6.482 0.271,-12.354 0.809,-17.611 h -5.655 c 0.541,6.427 0.809,12.296 0.809,17.611 0,7.492 -0.486,14.131 -1.455,19.922"
             style="fill:#231f20;fill-opacity:1;fill-rule:nonzero;stroke:none"
             id="path46"
             inkscape:connector-curvature="0" /></g><g
           id="g48"
           transform="translate(758.3701,183.4072)"><path
             d="M 0,0 1.184,3.744 C 3.588,2.92 6.22,2.322 9.073,1.951 c 2.853,-0.373 6.112,-0.556 9.773,-0.556 3.446,0 6.166,0.609 8.159,1.834 1.99,1.218 2.986,2.8 2.986,4.74 0,1.592 -0.519,3.002 -1.559,4.22 -1.041,1.225 -3.429,2.385 -7.162,3.487 -3.735,1.103 -7.197,2.201 -10.393,3.289 -3.194,1.09 -5.556,2.398 -7.081,3.928 -1.525,1.525 -2.289,3.271 -2.289,5.236 0,2.869 1.544,5.141 4.633,6.814 3.087,1.674 6.981,2.51 11.685,2.51 5.131,0 9.96,-0.49 14.484,-1.474 L 31.07,32.633 c -3.555,1.088 -8.15,1.633 -13.785,1.633 -3.517,0 -6.308,-0.584 -8.372,-1.754 -2.066,-1.166 -3.097,-2.604 -3.097,-4.303 0,-1.938 1.095,-3.451 3.284,-4.543 2.191,-1.086 5.87,-2.408 11.039,-3.965 5.17,-1.555 8.82,-3.113 10.958,-4.678 2.135,-1.57 3.204,-3.748 3.204,-6.539 0,-3.318 -1.507,-5.886 -4.524,-7.707 -3.014,-1.822 -7.18,-2.73 -12.492,-2.73 C 11.291,-1.953 5.527,-1.303 0,0"
             style="fill:#231f20;fill-opacity:1;fill-rule:nonzero;stroke:none"
             id="path50"
             inkscape:connector-curvature="0" /></g><g
           id="g102"
           transform="translate(522.1821,644.4668)"><path
             d="m 0,0 c 0,0 11.92,7.429 38.163,14.03 26.237,6.599 38.301,2.977 38.301,2.977 0,0 23.383,-25.571 34.835,-70.976 11.451,-45.409 -41.589,-77.758 -53.354,-108.939 -11.815,-31.33 0.858,-59.47 29.043,-81.73 29.724,-23.476 79.611,-33.619 79.611,-33.619 0,0 -18.414,-11.611 -33.329,-17.674 -19.134,-7.779 -36.925,-9.548 -36.925,-9.548 0,0 -64.038,38.49 -70.595,89.456 -7.698,59.859 86.016,95.405 46.761,165.335 C 48.076,-7.161 0,0 0,0"
             style="fill:#ed3a40;fill-opacity:1;fill-rule:nonzero;stroke:none"
             id="path104"
             inkscape:connector-curvature="0" /></g><g
           id="g106"
           transform="translate(596.5898,278.7139)"><path
             d="m 0,0 c -79.797,-0.004 -157.02,43.113 -196.697,118.496 -9.684,18.4 -16.725,37.951 -20.932,58.113 l 22.861,4.77 c 3.763,-18.032 10.067,-35.53 18.738,-52.006 50.981,-96.857 171.257,-134.18 268.11,-83.205 96.859,50.98 134.185,171.257 83.206,268.116 -50.978,96.856 -171.249,134.183 -268.107,83.205 -51.921,-27.326 -88.91,-75.902 -101.483,-133.272 l -22.813,4.999 c 14.05,64.113 55.39,118.4 113.419,148.94 C 4.554,475.131 138.977,433.413 195.955,325.161 252.93,216.907 211.213,82.479 102.96,25.502 70.088,8.199 34.795,0 0,0"
             style="fill:#231f20;fill-opacity:1;fill-rule:nonzero;stroke:none"
             id="path108"
             inkscape:connector-curvature="0" /></g><g
           id="g110"
           transform="translate(786.3115,358.2822)"><path
             d="m 0,0 c -2.683,-3.555 -6.838,-8.412 -12.574,-13.328 -5.715,-4.914 -13.079,-9.795 -21.594,-13.367 -4.252,-1.791 -8.779,-3.26 -13.457,-4.321 -4.557,-1.037 -9.56,-1.724 -14.292,-2.017 -9.603,-0.578 -19.208,0.691 -27.894,3.017 -8.7,2.319 -16.496,5.633 -22.906,8.93 -2.519,1.295 -4.827,2.588 -6.905,3.824 -0.397,0.233 0.519,-0.316 0.143,-0.088 -3.167,-2.197 -17.131,-9.211 -19.086,-10.058 0.296,-0.17 0.681,-0.479 1.12,-0.721 4.237,-2.324 10.342,-5.371 17.966,-8.281 7.619,-2.899 16.782,-5.647 26.898,-7.17 10.084,-1.537 21.149,-1.766 31.889,0.094 5.423,0.912 10.468,2.341 15.554,4.195 4.971,1.834 9.676,4.068 13.992,6.588 8.646,5.037 15.667,11.176 20.891,17.004 5.246,5.828 8.792,11.281 11.016,15.197 C 2.99,3.424 3.916,5.822 3.916,5.822 3.916,5.822 2.684,3.564 0,0"
             style="fill:#ed1c24;fill-opacity:1;fill-rule:nonzero;stroke:none"
             id="path112"
             inkscape:connector-curvature="0" /></g><g
           id="g114"
           transform="translate(781.3496,597.9829)"><path
             d="m 0,0 c -53.73,102.08 -180.486,141.42 -282.566,87.693 l -0.907,1.721 C -180.445,143.642 -52.51,103.938 1.722,0.906 Z"
             style="fill:#231f20;fill-opacity:1;fill-rule:nonzero;stroke:none"
             id="path116"
             inkscape:connector-curvature="0" /></g><g
           id="g118"
           transform="translate(527.5825,664.9648)"><path
             d="m 0,0 c 0,0 -18.982,7.576 -31.138,10.136 -12.137,2.577 -25.464,3.645 -38.66,2.19 -6.497,-0.725 -13.363,-2.012 -19.578,-3.738 -6.38,-1.771 -12.53,-4.082 -18.284,-6.823 -11.521,-5.468 -21.382,-12.661 -28.968,-19.798 -7.615,-7.133 -13.054,-14.103 -16.532,-19.179 -3.486,-5.088 -5.044,-8.291 -5.044,-8.291 0,0 1.11,3.38 3.915,8.956 2.806,5.565 7.329,13.344 14.179,21.762 6.823,8.404 16.099,17.375 27.703,24.946 5.789,3.788 12.137,7.214 18.874,10.105 6.906,2.935 13.762,5.276 21.205,6.941 14.711,3.366 30.022,3.909 44.094,2.573 14.103,-1.309 26.996,-4.38 37.761,-7.781 10.78,-3.405 28.73,-10.837 28.73,-10.837 0,0 -10.085,-1.946 -17.208,-3.87 C 13.412,5.228 0,0 0,0"
             style="fill:#ed1c24;fill-opacity:1;fill-rule:nonzero;stroke:none"
             id="path120"
             inkscape:connector-curvature="0" /></g><g
           id="g122"
           transform="translate(594.6934,594.8994)"><path
             d="m 0,0 c 26.34,-46.922 -7.184,-78.361 -29.772,-112.054 -5.693,-8.492 -10.661,-17.13 -13.81,-26.196 4.32,10.857 12.561,17.944 20.202,26.441 8.394,9.336 17.258,17.676 26.144,26.517 0.334,0.33 0.638,0.677 0.964,1.014 3.567,4.388 7.315,8.854 11.02,13.439 15.929,19.717 30.612,41.484 24.039,67.558 C 27.336,42.125 3.952,67.695 3.952,67.695 c 0,0 -12.063,3.625 -38.303,-2.976 -26.24,-6.601 -38.16,-14.031 -38.16,-14.031 0,0 48.074,-7.161 72.511,-50.688"
             style="fill:#97121f;fill-opacity:1;fill-rule:nonzero;stroke:none"
             id="path124"
             inkscape:connector-curvature="0" /></g><g
           id="g126"
           transform="translate(597.8848,633.0405)"><path
             d="m 0,0 c -72.958,0 -132.313,-59.356 -132.313,-132.315 0,-72.957 59.355,-132.314 132.313,-132.314 72.959,0 132.313,59.357 132.313,132.314 C 132.313,-59.356 72.959,0 0,0 m 0,-315.231 c -100.859,0 -182.915,82.055 -182.915,182.916 0,100.86 82.056,182.917 182.915,182.917 100.859,0 182.915,-82.057 182.915,-182.917 0,-100.861 -82.056,-182.916 -182.915,-182.916"
             style="fill:#231f20;fill-opacity:1;fill-rule:nonzero;stroke:none"
             id="path128"
             inkscape:connector-curvature="0" /></g></g></g><path
       d="M 837.49309,156.20059 H 349.63828 v 573.06565 h 487.85481 z"
       style="fill:none;stroke:#231f20;stroke-width:0.55983639;stroke-linecap:butt;stroke-linejoin:miter;stroke-miterlimit:10;stroke-dasharray:none;stroke-opacity:1"
       id="path130"
       inkscape:connector-curvature="0" /></g></svg>