<?xml version="1.0" encoding="UTF-8" standalone="no"?>
<svg
    xmlns:osb="http://www.openswatchbook.org/uri/2009/osb"
    xmlns:dc="http://purl.org/dc/elements/1.1/"
    xmlns:cc="http://creativecommons.org/ns#"
    xmlns:rdf="http://www.w3.org/1999/02/22-rdf-syntax-ns#"
    xmlns:svg="http://www.w3.org/2000/svg"
    xmlns="http://www.w3.org/2000/svg"
    xmlns:sodipodi="http://sodipodi.sourceforge.net/DTD/sodipodi-0.dtd"
    xmlns:inkscape="http://www.inkscape.org/namespaces/inkscape"
    width="341.62512"
    height="192.73941"
    version="1.1"
    id="svg63"
    sodipodi:docname="RNAlysis.svg"
    inkscape:version="0.92.4 (5da689c313, 2019-01-14)"
    inkscape:export-filename="C:\Users\Guy_Teichman\Desktop\RNAlysis.png"
    inkscape:export-xdpi="300"
    inkscape:export-ydpi="300">
    <defs
        id="defs67">
        <linearGradient
            id="linearGradient4970"
            osb:paint="solid">
            <stop
                style="stop-color:#e30000;stop-opacity:1;"
                offset="0"
                id="stop4968"/>
        </linearGradient>
    </defs>
    <sodipodi:namedview
        pagecolor="#ffffff"
        bordercolor="#666666"
        borderopacity="1"
        objecttolerance="10"
        gridtolerance="10"
        guidetolerance="10"
        inkscape:pageopacity="0"
        inkscape:pageshadow="2"
        inkscape:window-width="1920"
        inkscape:window-height="1001"
        id="namedview65"
        showgrid="false"
        inkscape:zoom="2.8540725"
        inkscape:cx="201.94124"
        inkscape:cy="59.28336"
        inkscape:window-x="-9"
        inkscape:window-y="-9"
        inkscape:window-maximized="1"
        inkscape:current-layer="svg63"/>
    <path
        id="imagebot_18-1"
        d="m 110.90388,107.07549 v 26.31363 c 0,1.30745 1.68191,2.36681 3.75956,2.36681 2.06666,0 3.75956,-1.05936 3.75956,-2.36681 v -26.31363 c 0,-1.30188 -1.6874,-2.3696 -3.75956,-2.3696 -2.08314,0 -3.75956,1.06772 -3.75956,2.3696 z"
        inkscape:connector-curvature="0"
        style="fill:#d40000;stroke:#000000;stroke-opacity:1"/>
    <path
        id="imagebot_7"
        d="m 187.70858,135.80388 c 78.2087,0 75.69683,-110.500233 153.91653,-110.500233 h -33.79205 c -78.20871,0 -75.70783,110.500233 -153.91653,110.500233 h 33.78655 z"
        inkscape:connector-curvature="0"
        style="fill:#00994b;stroke:#000000;stroke-width:1.37410748"/>
    <path
        id="imagebot_18"
        d="M 85.2826,78.217796 V 130.0986 c 0,2.57782 1.68191,4.66647 3.75956,4.66647 2.06666,0 3.75956,-2.08865 3.75956,-4.66647 V 78.217796 c 0,-2.566832 -1.6874,-4.671965 -3.75956,-4.671965 -2.08314,0 -3.75956,2.105133 -3.75956,4.671965 z"
        inkscape:connector-curvature="0"
        style="fill:#44aa00;stroke:#000000;stroke-opacity:1"/>
    <path
        id="imagebot_19"
        d="m 61.96125,54.982987 v 73.162973 c 0,2.57783 1.68191,4.66098 3.75956,4.66098 2.07765,0 3.75956,-2.08315 3.75956,-4.66098 V 54.982987 c 0,-2.58332 -1.68191,-4.67197 -3.75956,-4.67197 -2.07765,0 -3.75956,2.08865 -3.75956,4.67197 z"
        inkscape:connector-curvature="0"
        style="fill:#44aa00;stroke:#000000;stroke-opacity:1"/>
    <path
        id="imagebot_20"
        d="m 38.6399,39.638217 v 86.561473 c 0,3.27055 1.6874,5.94137 3.75956,5.94137 2.07215,0 3.75956,-2.67082 3.75956,-5.94137 V 39.638217 c 0,-3.27752 -1.6929,-5.92046 -3.75956,-5.92046 -2.06666,0 -3.75956,2.64991 -3.75956,5.92046 z"
        inkscape:connector-curvature="0"
        style="fill:#7f2aff;stroke:#000000;stroke-opacity:1"/>
    <path
        id="imagebot_21"
        d="m 15.32954,34.844967 v 87.759013 c 0,5.06716 1.67092,9.1748 3.75956,9.1748 2.07765,0 3.75956,-4.10764 3.75956,-9.1748 V 34.844967 c 0,-5.06717 -1.68191,-9.15324 -3.75956,-9.15324 -2.08864,0 -3.75956,4.09686 -3.75956,9.15324 z"
        inkscape:connector-curvature="0"
        style="fill:#c83737;stroke:#000000;stroke-opacity:1"/>
    <path
        id="imagebot_24"
        d="m 198.33318,32.404597 v 90.806133 c 0,3.8727 1.6819,7.00223 3.75956,7.00223 2.06116,0 3.74856,-3.12954 3.74856,-7.00223 V 32.404597 c 0,-3.88095 -1.6874,-7.01875 -3.74856,-7.01875 -2.08315,0.008 -3.75956,3.14605 -3.75956,7.01875 z"
        inkscape:connector-curvature="0"
        style="fill:#ffcc00;stroke:#000000;stroke-opacity:1"/>
    <path
        id="imagebot_25"
        d="m 221.63254,30.451937 v 74.069993 c 0,2.79858 1.68741,5.08399 3.75956,5.08399 2.08315,0 3.75956,-2.28541 3.75956,-5.08399 V 30.451937 c 0,-2.80455 -1.67091,-5.06609 -3.75956,-5.06609 -2.07215,0 -3.75956,2.26751 -3.75956,5.06609 z"
        inkscape:connector-curvature="0"
        style="fill:#7f2aff;stroke:#000000;stroke-opacity:1"/>
    <path
        id="imagebot_26"
        d="m 244.95939,30.170907 v 45.877987 c 0,2.648974 1.68191,4.796334 3.74307,4.796334 2.07765,0 3.75956,-2.14736 3.75956,-4.796334 V 30.170907 c 0,-2.64897 -1.68191,-4.78506 -3.75956,-4.78506 -2.06116,0 -3.74307,2.14173 -3.74307,4.78506 z"
        inkscape:connector-curvature="0"
        style="fill:#c83737;stroke:#000000;stroke-opacity:1"/>
    <path
        id="imagebot_42"
        d="M 153.91653,135.80388 C 75.70782,135.80388 78.2087,25.303647 0,25.303647 h 33.79205 c 78.2087,0 75.69683,110.500233 153.91653,110.500233 z"
        inkscape:connector-curvature="0"
        style="fill:#82c995;stroke:#000000;stroke-width:1.37410748"/>
    <text
        id="imagebot_57"
        xml:space="preserve"
        font-size="24"
        y="21.828125"
        x="201.8063"
        fill-opacity="null"
        stroke-linecap="null"
        stroke-linejoin="null"
        style="font-style:normal;font-variant:normal;font-weight:normal;font-stretch:normal;font-size:32px;font-family:'Copperplate Gothic Light';-inkscape-font-specification:'Copperplate Gothic Light, ';text-anchor:middle;fill:#001484;stroke:none;stroke-width:1;stroke-miterlimit:4;stroke-dasharray:none;stroke-opacity:1;fill-opacity:1;">Y</text>
    <text
        id="imagebot_63"
        xml:space="preserve"
        font-size="24"
        y="21.828125"
        x="177.2554"
        fill-opacity="null"
        stroke-linecap="null"
        stroke-linejoin="null"
        style="font-style:normal;font-variant:normal;font-weight:normal;font-stretch:normal;font-size:32px;font-family:'Copperplate Gothic Light';-inkscape-font-specification:'Copperplate Gothic Light, ';text-anchor:middle;fill:#001484;stroke:#969696;stroke-width:1;stroke-miterlimit:4;stroke-dasharray:none;stroke-opacity:1;fill-opacity:1;"><tspan
       style="font-style:normal;font-variant:normal;font-weight:normal;font-stretch:normal;font-size:32px;font-family:'Copperplate Gothic Light';-inkscape-font-specification:'Copperplate Gothic Light, ';fill:#001484;stroke:none;stroke-width:1;stroke-miterlimit:4;stroke-dasharray:none;stroke-opacity:1;fill-opacity:1;"
       id="tspan186">L</tspan></text>
    <text
        id="imagebot_67"
        xml:space="preserve"
        font-size="24"
        y="21.828125"
        x="248.2554"
        fill-opacity="null"
        stroke-linecap="null"
        stroke-linejoin="null"
        style="font-style:normal;font-variant:normal;font-weight:normal;font-stretch:normal;font-size:32px;font-family:'Copperplate Gothic Light';-inkscape-font-specification:'Copperplate Gothic Light, ';text-anchor:middle;fill:#001484;stroke:none;stroke-width:1;stroke-miterlimit:4;stroke-dasharray:none;stroke-opacity:1;fill-opacity:1;">I</text>
    <text
        id="imagebot_70"
        xml:space="preserve"
        font-size="24"
        y="21.828125"
        x="270.2554"
        fill-opacity="null"
        stroke-linecap="null"
        stroke-linejoin="null"
        style="font-style:normal;font-variant:normal;font-weight:normal;font-stretch:normal;font-size:32px;font-family:'Copperplate Gothic Light';-inkscape-font-specification:'Copperplate Gothic Light, ';text-anchor:middle;fill:#001484;stroke:none;stroke-width:1;stroke-miterlimit:4;stroke-dasharray:none;stroke-opacity:1;fill-opacity:1;">S</text>
    <metadata
        id="metadata61">image/svg+xmlOpenclipartDNA2010-05-03T13:09:46Simple DNA for
        illustrationshttps://openclipart.org/detail/58543/dna-by-kumar35885kumar35885DNADeoxyribonucleic aciddouble
        helixgenegenetichelix
        <rdf:RDF>
            <cc:Work
                rdf:about="">
                <dc:format>image/svg+xml</dc:format>
                <dc:type
                    rdf:resource="http://purl.org/dc/dcmitype/StillImage"/>
                <dc:title/>
            </cc:Work>
        </rdf:RDF>
    </metadata>
    <text
        id="imagebot_54-3"
        xml:space="preserve"
        font-size="24"
        y="21.828125"
        x="226.05573"
        fill-opacity="null"
        stroke-linecap="null"
        stroke-linejoin="null"
        style="font-style:normal;font-variant:normal;font-weight:normal;font-stretch:normal;font-size:32px;font-family:'Copperplate Gothic Light';-inkscape-font-specification:'Copperplate Gothic Light, ';text-anchor:middle;fill:#001484;stroke:none;stroke-width:1;stroke-miterlimit:4;stroke-dasharray:none;stroke-opacity:1;fill-opacity:1;">S</text>
    <path
        id="imagebot_26-3"
        d="m 267.51389,28.055847 v 25.5993 c 0,1.47809 1.68191,2.67629 3.74307,2.67629 2.07765,0 3.75956,-1.1982 3.75956,-2.67629 v -25.5993 c 0,-1.47809 -1.68191,-2.67 -3.75956,-2.67 -2.06116,0 -3.74307,1.19505 -3.74307,2.67 z"
        inkscape:connector-curvature="0"
        style="fill:#7f2aff;stroke:#000000;stroke-opacity:1"/>
    <text
        id="imagebot_66-4"
        xml:space="preserve"
        font-size="24"
        y="160.53647"
        x="64.242126"
        fill-opacity="null"
        stroke-linecap="null"
        stroke-linejoin="null"
        style="font-style:normal;font-variant:normal;font-weight:normal;font-stretch:normal;font-size:32px;font-family:'Copperplate Gothic Light';-inkscape-font-specification:'Copperplate Gothic Light, ';text-anchor:middle;fill:#001484;stroke:none;stroke-width:1;stroke-miterlimit:4;stroke-dasharray:none;stroke-opacity:1;fill-opacity:1;">R</text>
    <text
        id="imagebot_71-4"
        xml:space="preserve"
        font-size="24"
        y="160.53647"
        x="89.350464"
        fill-opacity="null"
        stroke-linecap="null"
        stroke-linejoin="null"
        style="font-style:normal;font-variant:normal;font-weight:normal;font-stretch:normal;font-size:32px;font-family:'Copperplate Gothic Light';-inkscape-font-specification:'Copperplate Gothic Light, ';text-anchor:middle;fill:#001484;stroke:none;stroke-width:1;stroke-miterlimit:4;stroke-dasharray:none;stroke-opacity:1;fill-opacity:1;">N</text>
    <text
        id="imagebot_71-9-3"
        xml:space="preserve"
        font-size="24"
        y="160.53647"
        x="114.45879"
        fill-opacity="null"
        stroke-linecap="null"
        stroke-linejoin="null"
        style="font-style:normal;font-variant:normal;font-weight:normal;font-stretch:normal;font-size:32px;font-family:'Copperplate Gothic Light';-inkscape-font-specification:'Copperplate Gothic Light, ';text-anchor:middle;fill:#001484;stroke:none;stroke-width:1;stroke-miterlimit:4;stroke-dasharray:none;stroke-opacity:1;fill-opacity:1;">A</text>
    <path
        id="imagebot_23"
        d="m 175.01182,36.924137 v 84.555333 c 0,6.36642 1.68191,11.52471 3.75956,11.52471 2.06666,0 3.75956,-5.15829 3.75956,-11.52472 V 36.924137 c 0,-6.37999 -1.6874,-11.53829 -3.75956,-11.53829 -2.07765,0 -3.75956,5.1583 -3.75956,11.53829 z"
        inkscape:connector-curvature="0"
        style="fill:#44aa00;stroke:#000000;stroke-width:0.9849754;stroke-opacity:1"/>
    <text
        xml:space="preserve"
        style="font-style:normal;font-weight:normal;font-size:24px;line-height:1.25;font-family:sans-serif;letter-spacing:0px;word-spacing:0px;fill:#001484;fill-opacity:1;stroke:none;"
        x="1.2019919"
        y="190.9803"
        id="text31"><tspan
       sodipodi:role="line"
       x="1.2019919"
       y="190.9803"
       style="font-style:normal;font-variant:normal;font-weight:normal;font-stretch:normal;font-size:18.66666603px;font-family:'Copperplate Gothic Light';-inkscape-font-specification:'Copperplate Gothic Light, ';fill:#001484;fill-opacity:1;"
       id="tspan33">RNA Sequencing analysis pipeline</tspan></text>
</svg>
